<svg version="1.1" id="Layer_1" xmlns="http://www.w3.org/2000/svg" xmlns:xlink="http://www.w3.org/1999/xlink" x="0px" y="0px"
	 width="100%" viewBox="0 0 600 600" enable-background="new 0 0 600 600" xml:space="preserve">
<path fill="#ffffff" opacity="1.000000" stroke="none" 
	d="
M1.000000,600.000000 
	C1.000000,400.380280 1.000000,200.760544 1.000000,1.070407 
	C200.906021,1.070407 400.812073,1.070407 601.000000,1.070407 
	C601.000000,200.359085 601.000000,399.718292 600.538757,599.538757 
	C400.385010,600.000000 200.692505,600.000000 1.000000,600.000000 
M332.814178,329.499725 
	C332.212921,343.571442 332.575714,357.766510 330.794403,371.687225 
	C327.790985,395.158356 315.303986,406.759521 291.831024,410.073975 
	C270.855927,413.035675 252.236008,407.004181 235.699280,394.468750 
	C226.594559,387.567047 218.244095,379.670380 209.180908,371.902924 
	C190.162933,392.922119 170.937851,414.170227 151.648773,435.489044 
	C153.909851,438.329407 155.727646,440.701019 157.636505,442.996857 
	C172.649033,461.052826 190.322357,475.795197 212.251450,484.595642 
	C253.154312,501.010498 295.241180,503.684052 338.090302,493.774109 
	C366.752625,487.145203 390.882294,472.829132 408.692535,449.156494 
	C427.811493,423.744324 435.426971,394.132751 435.655731,363.016968 
	C436.284088,277.530731 435.954376,192.037491 435.987640,106.547005 
	C435.988098,105.293518 435.779602,104.039948 435.670685,102.809708 
	C351.865936,102.809708 268.468201,102.809708 184.936951,102.809708 
	C184.936951,131.624893 184.936951,160.088760 184.936951,189.115036 
	C234.405930,189.115036 283.471375,189.115036 332.941864,189.115036 
	C332.941864,235.952209 332.941864,282.225952 332.814178,329.499725 
z"/>
<path fill="#AFB2B9" opacity="1.000000" stroke="none" 
	d="
M1.000000,600.500000 
	C200.692505,600.000000 400.385010,600.000000 600.538757,600.000000 
	C600.833374,600.333313 600.684082,600.943848 600.497192,600.955505 
	C599.169128,601.039001 597.833313,601.000000 596.500000,601.000000 
	C398.000000,601.000000 199.500000,601.000000 1.000000,600.500000 
z"/>
<path fill="#000000" opacity="1.000000" stroke="none" 
	d="
M332.878021,328.999695 
	C332.941864,282.225952 332.941864,235.952209 332.941864,189.115036 
	C283.471375,189.115036 234.405930,189.115036 184.936951,189.115036 
	C184.936951,160.088760 184.936951,131.624893 184.936951,102.809708 
	C268.468201,102.809708 351.865936,102.809708 435.670685,102.809708 
	C435.779602,104.039948 435.988098,105.293518 435.987640,106.547005 
	C435.954376,192.037491 436.284088,277.530731 435.655731,363.016968 
	C435.426971,394.132751 427.811493,423.744324 408.692535,449.156494 
	C390.882294,472.829132 366.752625,487.145203 338.090302,493.774109 
	C295.241180,503.684052 253.154312,501.010498 212.251450,484.595642 
	C190.322357,475.795197 172.649033,461.052826 157.636505,442.996857 
	C155.727646,440.701019 153.909851,438.329407 151.648773,435.489044 
	C170.937851,414.170227 190.162933,392.922119 209.180908,371.902924 
	C218.244095,379.670380 226.594559,387.567047 235.699280,394.468750 
	C252.236008,407.004181 270.855927,413.035675 291.831024,410.073975 
	C315.303986,406.759521 327.790985,395.158356 330.794403,371.687225 
	C332.575714,357.766510 332.212921,343.571442 332.878021,328.999695 
z"/>
</svg>