<?xml version="1.0" standalone="no"?>
<!DOCTYPE svg PUBLIC "-//W3C//DTD SVG 20010904//EN"
 "http://www.w3.org/TR/2001/REC-SVG-20010904/DTD/svg10.dtd">
<svg version="1.0" xmlns="http://www.w3.org/2000/svg"
 width="720.000000pt" height="480.000000pt" viewBox="0 0 720.000000 480.000000"
 preserveAspectRatio="xMidYMid meet">

<g transform="translate(0.000000,480.000000) scale(0.100000,-0.100000)"
fill="#000000" stroke="none">
<path d="M5003 3827 c-208 -266 -511 -664 -673 -886 l-295 -402 -22 28 c-13
15 -111 152 -220 303 -108 151 -230 321 -270 378 l-75 102 -65 0 -65 0 48 -67
c75 -106 366 -513 482 -672 57 -79 106 -149 108 -155 2 -6 -118 -177 -267
-381 -148 -203 -304 -416 -345 -472 l-74 -103 68 0 67 0 310 429 c171 237 313
430 316 430 3 1 145 -191 314 -427 169 -235 309 -428 310 -430 2 -2 33 -2 70
0 l67 3 -319 440 c-175 242 -329 455 -341 473 l-24 32 43 63 c69 101 1172
1700 1221 1770 11 15 17 27 15 27 -3 0 -176 -217 -384 -483z"/>
<path d="M400 2425 l0 -925 53 0 54 0 6 377 c4 207 7 592 7 856 l0 480 101
-149 c56 -82 208 -304 339 -494 130 -190 350 -510 489 -712 208 -304 914
-1265 968 -1318 12 -12 -933 1407 -1763 2647 l-109 162 -72 1 -73 0 0 -925z"/>
<path d="M1960 2425 l0 -925 631 0 630 0 -3 48 -3 47 -572 3 -573 2 0 405 0
405 532 2 531 3 0 38 c-1 20 -2 42 -2 47 -1 7 -185 10 -531 10 l-530 0 0 370
0 370 565 0 565 0 0 50 0 50 -620 0 -620 0 0 -925z"/>
<path d="M4850 3300 l0 -51 323 1 322 1 3 -875 2 -876 55 0 55 0 0 875 0 875
328 2 327 3 3 48 3 47 -710 0 -711 0 0 -50z"/>
<path d="M6773 2021 c-23 -11 -46 -28 -52 -39 -15 -27 -13 -103 2 -123 17 -23
63 -44 126 -59 84 -20 112 -59 71 -100 -15 -15 -33 -20 -71 -20 -44 0 -55 4
-79 30 -34 37 -70 40 -70 7 0 -46 74 -97 141 -97 48 0 106 20 130 46 13 13 23
41 26 68 5 40 2 48 -24 75 -20 19 -55 37 -104 51 -86 26 -99 34 -99 65 0 35
31 55 83 55 40 0 49 -4 69 -30 13 -18 31 -30 45 -30 47 0 18 71 -42 100 -51
25 -98 25 -152 1z"/>
<path d="M6550 1872 c0 -141 -2 -161 -18 -175 -32 -29 -102 -13 -102 24 0 5
-13 9 -30 9 -22 0 -30 -5 -30 -18 0 -45 63 -92 122 -92 42 0 96 33 108 66 6
14 10 97 10 185 l0 159 -30 0 -30 0 0 -158z"/>
<path d="M6226 1691 c-18 -19 -18 -22 -2 -46 20 -30 30 -31 57 -4 18 18 19 23
6 42 -19 29 -39 32 -61 8z"/>
</g>
</svg>
