<?xml version="1.0" standalone="no"?>
<!DOCTYPE svg PUBLIC "-//W3C//DTD SVG 20010904//EN"
 "http://www.w3.org/TR/2001/REC-SVG-20010904/DTD/svg10.dtd">
<svg version="1.0" xmlns="http://www.w3.org/2000/svg"
 width="900.000000pt" height="900.000000pt" viewBox="0 0 900.000000 900.000000"
 preserveAspectRatio="xMidYMid meet">

<g transform="translate(0.000000,900.000000) scale(0.100000,-0.100000)"
fill="#03419e" stroke="none">
<path d="M4200 8993 c-114 -7 -340 -35 -480 -59 -1190 -209 -2240 -885 -2932
-1889 -451 -656 -737 -1490 -773 -2260 -3 -66 -8 -154 -10 -195 -9 -195 21
-592 64 -846 113 -658 380 -1302 764 -1840 670 -940 1670 -1587 2792 -1808
1253 -246 2554 51 3570 815 310 233 624 542 856 844 511 662 817 1420 915
2265 34 298 29 743 -12 1065 -126 985 -581 1906 -1292 2613 -759 755 -1750
1206 -2836 1292 -117 9 -491 11 -626 3z m794 -163 c1067 -125 2055 -640 2755
-1436 618 -703 977 -1520 1078 -2451 21 -194 23 -639 5 -828 -103 -1039 -543
-1972 -1271 -2695 -1017 -1009 -2441 -1451 -3851 -1194 -1599 291 -2913 1475
-3384 3046 -69 228 -121 488 -153 753 -25 213 -25 758 0 965 87 708 306 1314
683 1892 547 839 1368 1465 2321 1772 323 103 673 169 1068 200 132 10 578 -4
749 -24z"/>
<path d="M4310 8764 c-286 -20 -432 -38 -644 -80 -1726 -343 -3076 -1733
-3365 -3463 -47 -280 -56 -392 -56 -711 0 -407 29 -659 120 -1025 236 -955
790 -1792 1580 -2387 523 -394 1140 -664 1785 -782 293 -53 390 -61 775 -61
395 0 515 11 834 75 1407 281 2594 1276 3120 2614 152 387 241 761 282 1186
15 160 15 588 0 750 -58 613 -231 1174 -522 1696 -680 1219 -1912 2030 -3294
2169 -149 15 -510 26 -615 19z m-75 -354 c0 -30 -4 -35 -26 -38 -20 -2 -32
-16 -57 -68 -18 -35 -32 -67 -32 -69 0 -3 17 -5 38 -5 64 -1 86 -30 97 -127 6
-51 10 -63 25 -63 19 0 30 -19 30 -50 0 -15 -11 -20 -54 -25 -30 -4 -59 -4
-64 -1 -5 3 -13 43 -17 89 -3 46 -10 89 -14 96 -12 19 -124 4 -117 -15 3 -8 8
-54 12 -104 6 -76 5 -90 -8 -90 -8 0 -36 -3 -62 -6 l-46 -7 0 36 c0 26 5 37
18 41 17 6 17 13 5 119 -7 61 -15 136 -19 165 -4 42 -9 52 -24 52 -12 0 -21
10 -25 31 -4 17 -4 33 0 37 3 4 32 7 63 7 l57 0 10 -100 10 -100 50 112 c46
104 52 112 80 116 62 8 70 5 70 -33z m385 36 c0 -4 74 -305 91 -368 7 -28 15
-38 29 -38 16 0 20 -7 20 -35 l0 -36 -57 3 -58 3 -16 70 -16 70 -65 3 -65 3
-7 -38 c-3 -21 -11 -55 -16 -75 -11 -37 -12 -38 -60 -38 l-50 0 0 35 c0 27 4
35 18 35 15 0 26 27 61 153 23 83 49 176 58 205 l14 52 60 0 c32 0 59 -2 59
-4z m695 -76 c152 -31 167 -49 145 -165 -21 -112 -59 -137 -167 -112 l-60 15
-15 -69 c-14 -67 -14 -68 6 -71 17 -2 20 -9 18 -33 -2 -16 -7 -33 -10 -37 -6
-6 -151 19 -160 27 -2 2 -1 17 3 34 4 20 13 31 28 33 20 3 25 18 54 158 17 85
32 158 32 162 1 4 -8 10 -19 13 -16 5 -19 12 -14 33 10 39 13 43 37 37 12 -3
67 -14 122 -25z m-1515 1 c0 -11 3 -26 6 -34 3 -9 -3 -16 -17 -20 -17 -4 -20
-11 -16 -29 3 -13 18 -87 33 -166 25 -129 30 -142 48 -140 14 2 21 -5 27 -26
5 -16 6 -32 4 -36 -6 -10 -143 -33 -155 -25 -17 11 -12 65 6 65 19 0 19 1 -23
203 -25 120 -28 127 -50 127 -22 0 -24 4 -21 38 3 37 3 37 63 48 87 17 95 17
95 -5z m-252 -71 c6 -16 8 -30 4 -30 -34 -1 -31 -21 27 -209 l59 -193 -36 -15
-35 -15 -136 136 -137 136 42 -129 c61 -189 61 -189 27 -202 -66 -25 -80 -23
-92 11 -9 28 -8 33 9 37 11 3 20 6 20 7 0 0 -22 73 -49 161 -43 141 -51 160
-69 157 -14 -2 -23 6 -31 29 -6 18 -9 34 -7 36 2 2 30 11 62 20 l58 17 129
-135 c71 -74 126 -125 122 -114 -24 70 -85 276 -85 288 0 13 88 48 102 40 3
-1 11 -16 16 -33z m2202 -46 c78 -28 120 -61 120 -95 0 -37 -110 -343 -132
-366 -28 -30 -55 -29 -152 3 -89 30 -116 51 -116 93 0 48 107 354 131 374 29
23 61 22 149 -9z m-2715 -115 c15 -29 15 -32 -1 -44 -16 -12 -13 -23 52 -163
61 -134 71 -150 90 -146 16 4 24 -1 34 -26 7 -17 11 -32 9 -33 -25 -15 -103
-47 -106 -43 -3 3 -23 42 -44 88 -21 46 -43 84 -47 86 -5 1 -35 -8 -65 -22
l-56 -25 44 -96 45 -96 -56 -25 c-31 -14 -57 -24 -58 -22 -1 2 -8 16 -14 32
-11 24 -10 30 3 40 14 10 7 30 -53 161 -59 129 -72 150 -90 147 -20 -3 -42 22
-42 47 0 9 89 61 103 61 2 0 23 -42 46 -94 l43 -95 56 25 c31 14 58 27 61 29
2 3 -13 44 -35 92 -21 47 -40 90 -42 95 -3 6 65 42 105 57 1 1 10 -13 18 -30z
m3150 -63 c55 -26 101 -49 103 -51 12 -12 -37 -68 -90 -102 -35 -22 -112 -72
-171 -110 l-108 -70 59 -26 c33 -15 64 -27 70 -27 5 0 15 14 22 30 7 17 16 30
20 30 23 0 71 -24 67 -34 -3 -6 -17 -39 -32 -72 l-27 -62 -130 59 c-181 83
-168 74 -156 107 9 22 52 55 180 137 92 59 168 111 168 115 0 3 -26 18 -58 32
l-59 25 -12 -33 c-14 -38 -20 -40 -62 -19 -32 17 -32 17 16 117 l18 36 41 -18
c23 -10 86 -39 141 -64z m286 -151 l42 -27 -6 -82 c-4 -44 -9 -126 -13 -181
l-6 -100 59 95 c32 52 71 114 86 137 l27 43 50 -31 50 -30 -17 -27 c-9 -15
-18 -28 -19 -30 -1 -2 -11 1 -21 6 -16 9 -31 -11 -123 -164 -58 -95 -107 -173
-110 -174 -3 0 -20 9 -38 20 -25 15 -31 25 -28 42 3 13 7 77 11 143 3 66 8
143 11 170 l5 50 -17 -30 c-13 -24 -152 -252 -159 -263 -5 -7 -94 54 -95 64 0
7 8 22 19 35 15 18 22 21 33 12 11 -9 30 16 102 133 80 133 86 146 71 158 -17
12 -17 14 0 40 20 30 24 29 86 -9z m-3867 -36 c20 -33 36 -64 36 -69 0 -5 -12
-16 -28 -24 -27 -14 -28 -13 -50 20 l-22 34 -51 -31 c-28 -18 -53 -37 -55 -43
-6 -15 143 -265 161 -273 16 -6 115 47 115 62 0 6 -7 19 -15 29 -22 29 -18 44
13 60 28 14 28 14 65 -45 20 -32 37 -63 37 -69 0 -12 -199 -130 -221 -130 -9
0 -28 9 -42 20 -24 19 -157 228 -193 303 -27 57 -10 82 104 154 53 34 100 62
103 62 4 1 23 -26 43 -60z m-338 -252 l27 -37 -23 -25 -24 -25 -26 32 c-30 36
-31 35 -105 -25 l-29 -25 34 -45 c19 -26 39 -47 44 -47 4 0 30 18 56 40 54 45
57 46 82 23 27 -24 23 -34 -37 -78 -30 -22 -54 -43 -55 -46 0 -4 18 -29 41
-58 45 -57 46 -57 112 1 l39 33 -21 27 c-12 14 -21 31 -21 37 0 16 50 45 59
35 44 -52 82 -105 79 -113 -4 -13 -245 -201 -257 -201 -5 0 -17 12 -26 27 -16
23 -16 28 -3 37 13 10 1 30 -74 126 -49 63 -96 124 -103 134 -12 16 -17 17
-30 6 -14 -12 -20 -10 -39 15 l-23 29 96 76 c53 41 112 88 131 102 l35 28 17
-23 c10 -12 30 -39 44 -60z m2637 -37 l87 -13 0 -252 0 -252 133 -33 c140 -34
295 -86 415 -139 40 -18 77 -31 82 -29 4 2 41 48 81 103 71 98 209 286 215
294 6 7 184 -94 304 -174 69 -46 168 -118 220 -160 110 -88 310 -272 310 -286
0 -5 -65 -99 -145 -209 -80 -110 -145 -202 -145 -204 0 -2 30 -39 66 -82 67
-80 204 -282 263 -386 18 -32 35 -58 39 -58 3 0 111 34 240 76 129 41 235 74
236 72 2 -2 26 -55 54 -120 61 -139 130 -342 167 -492 32 -134 74 -379 66
-387 -3 -4 -107 -39 -231 -78 -124 -40 -231 -74 -238 -76 -10 -4 -11 -31 -6
-122 6 -105 -5 -321 -22 -446 l-6 -45 236 -78 c195 -65 236 -81 236 -96 0 -33
-57 -259 -95 -378 -50 -156 -113 -308 -191 -461 l-65 -127 -77 24 c-42 13
-151 48 -242 79 -90 30 -167 52 -170 47 -4 -4 -28 -38 -55 -77 -66 -96 -137
-185 -221 -281 l-72 -81 148 -203 147 -203 -56 -53 c-200 -185 -427 -344 -677
-476 -63 -33 -120 -58 -127 -55 -6 3 -77 95 -157 204 l-145 200 -60 -24 c-100
-39 -244 -83 -350 -107 l-100 -23 -5 -254 -5 -254 -95 -13 c-154 -23 -624 -21
-790 2 -74 10 -138 20 -142 23 -5 2 -8 118 -8 256 l0 252 -109 27 c-59 15
-172 50 -250 78 -79 29 -146 48 -150 44 -4 -5 -70 -96 -146 -201 -77 -106
-143 -193 -149 -193 -13 0 -207 104 -286 154 -159 99 -347 243 -499 383 l-65
59 149 204 c101 139 145 207 139 216 -5 6 -46 56 -92 111 -46 54 -115 144
-153 201 -39 56 -74 102 -78 102 -5 0 -113 -34 -242 -76 -223 -73 -233 -75
-247 -58 -24 32 -138 274 -180 384 -76 198 -174 563 -155 580 4 5 112 42 238
83 217 70 230 76 229 98 -1 13 -7 78 -14 144 -6 65 -10 184 -9 264 l3 145 -40
12 c-194 62 -424 138 -433 143 -26 16 46 381 120 610 53 162 148 391 164 391
9 0 413 -128 460 -146 8 -3 28 24 55 73 55 103 159 259 237 356 l64 78 -151
207 -151 207 118 115 c191 186 442 374 645 485 l66 36 69 -93 c38 -51 104
-142 148 -201 55 -76 83 -107 94 -103 9 2 75 29 146 60 114 48 277 102 413
136 l42 11 0 253 0 253 85 12 c46 7 117 17 157 21 105 12 607 5 711 -10z
m2048 -3 c8 -7 28 -22 44 -35 l28 -22 -89 -197 c-58 -130 -84 -198 -76 -201
19 -6 14 -26 -10 -49 l-23 -21 -39 33 -40 33 33 72 c17 40 31 73 29 74 -2 1
-24 19 -49 39 l-47 37 -48 -38 c-73 -57 -71 -56 -109 -27 -40 30 -41 32 -16
65 16 20 22 22 34 12 12 -10 44 9 183 112 93 68 171 125 174 125 3 0 12 -5 21
-12z m-5031 -202 l44 -45 -27 -27 -26 -27 -26 24 -26 24 -24 -25 -25 -24 119
-119 c104 -104 122 -118 136 -106 13 11 19 9 41 -11 l25 -23 -63 -63 -63 -64
-22 28 c-19 24 -20 29 -8 43 13 14 1 29 -105 135 l-119 119 -26 -24 -25 -24
25 -26 25 -26 -23 -22 c-13 -12 -27 -22 -32 -22 -4 0 -28 21 -52 47 l-43 48
127 127 c70 71 132 128 138 128 6 0 31 -20 55 -45z m5311 -282 l-62 -178 120
119 120 120 40 -45 40 -44 -24 -24 c-20 -21 -26 -22 -40 -11 -14 12 -29 1
-118 -86 -56 -55 -122 -118 -148 -142 l-45 -42 -26 27 -26 28 58 179 59 179
-67 -65 c-37 -35 -91 -87 -121 -115 l-55 -51 -38 41 c-20 23 -37 45 -38 48 0
4 12 14 26 24 20 13 28 14 39 5 21 -17 260 216 243 237 -8 10 -6 19 13 39 l23
25 45 -45 44 -44 -62 -179z m249 181 c29 -30 21 -38 -48 -48 -35 -5 -50 -2
-64 11 -26 23 -23 30 25 46 57 21 60 21 87 -9z m-5890 -223 c0 -4 -5 -12 -12
-19 -10 -10 -4 -19 26 -44 22 -18 80 -67 130 -110 82 -70 92 -76 104 -61 11
16 14 15 39 -9 l26 -27 -41 -49 c-63 -74 -65 -76 -92 -47 -18 19 -21 27 -11
39 10 11 -11 34 -117 124 -113 97 -131 109 -144 96 -13 -13 -18 -12 -41 6
l-27 21 52 64 52 63 28 -20 c15 -10 28 -23 28 -27z m6018 -138 c18 -17 132
-168 132 -177 0 -3 -57 -43 -97 -69 -7 -4 -20 5 -34 24 l-22 32 23 17 24 18
-29 41 c-15 23 -32 44 -37 47 -11 7 -88 -45 -95 -63 -3 -6 14 -38 36 -69 63
-88 57 -117 -43 -188 -70 -50 -110 -58 -144 -28 -18 15 -142 178 -142 186 0 2
27 22 59 45 l59 41 21 -26 c21 -27 28 -54 14 -54 -5 0 -16 -7 -27 -15 -18 -13
-17 -16 19 -64 33 -46 39 -50 58 -39 41 21 77 52 77 64 0 7 -18 39 -40 70 -60
86 -54 109 42 179 68 49 111 58 146 28z m-6300 -179 c18 -12 20 -19 11 -35 -6
-12 -9 -22 -7 -23 57 -47 272 -186 277 -180 4 5 20 26 35 48 l29 38 -29 24
c-16 13 -32 23 -36 24 -14 0 -8 25 12 48 l19 23 66 -47 c37 -25 64 -52 62 -59
-5 -12 -152 -222 -168 -239 -5 -5 -19 -2 -34 8 -18 12 -24 23 -20 39 4 19 -13
35 -131 115 -122 85 -137 92 -148 77 -11 -16 -14 -15 -40 7 l-28 24 43 62 c24
34 48 62 54 62 6 0 21 -7 33 -16z m6565 -225 c-4 -4 -44 -29 -88 -54 l-80 -45
118 0 117 0 25 -40 c14 -22 25 -44 25 -49 0 -13 -63 -37 -67 -25 -10 28 -25
34 -96 40 -42 4 -77 5 -77 2 0 -3 7 -22 15 -41 24 -58 6 -87 -88 -141 -38 -22
-46 -30 -38 -44 7 -13 3 -20 -21 -35 -17 -10 -31 -17 -33 -15 -8 11 -55 96
-55 101 0 3 26 20 58 38 31 18 69 41 84 51 l28 19 -20 37 c-37 70 -30 69 -121
17 -46 -26 -87 -49 -90 -51 -7 -4 -59 88 -59 103 0 5 12 15 27 22 23 11 29 10
39 -4 10 -14 26 -7 135 56 181 105 172 98 158 115 -14 17 -14 16 26 37 l29 15
29 -50 c16 -28 25 -54 20 -59z m-6543 -111 c127 -67 154 -86 167 -114 16 -33
16 -34 -29 -121 -32 -62 -55 -94 -78 -107 l-32 -19 -155 79 c-185 94 -218 120
-210 167 9 55 87 185 116 196 38 13 54 7 221 -81z m-305 -314 c105 -42 123
-81 85 -182 -11 -29 -18 -57 -16 -61 3 -4 30 -16 60 -26 54 -18 56 -18 69 -1
12 16 16 16 44 4 l31 -13 -30 -75 c-16 -41 -31 -76 -33 -78 -2 -2 -17 4 -35
13 -22 12 -29 21 -25 34 5 15 -17 27 -142 75 -82 31 -153 56 -159 56 -7 0 -14
-7 -17 -15 -5 -11 -12 -12 -37 -4 -16 6 -30 15 -30 19 0 11 66 183 86 225 14
31 44 53 71 54 7 1 42 -11 78 -25z m7106 -61 c11 -25 18 -52 17 -59 -2 -7 -75
-68 -163 -136 -124 -96 -159 -128 -157 -144 2 -19 -31 -44 -57 -44 -8 0 -41
77 -41 95 0 6 27 29 60 53 l59 43 -25 57 c-13 31 -26 57 -27 58 -1 1 -35 -4
-75 -11 l-73 -12 -13 26 c-30 58 -29 68 5 80 26 9 34 8 43 -5 11 -14 32 -12
211 14 110 16 204 30 208 31 4 1 17 -20 28 -46z m-7491 -1152 c0 -22 25 -26
185 -36 55 -3 112 -9 128 -11 22 -5 27 -2 27 15 0 17 6 21 36 21 l37 0 -7
-117 c-8 -132 -19 -178 -46 -193 -31 -17 -141 -12 -180 8 -49 24 -61 54 -53
135 l6 67 -72 0 c-64 0 -71 -2 -71 -20 0 -14 -7 -20 -22 -20 -46 0 -51 12 -43
94 l7 76 34 0 c27 0 34 -4 34 -19z m7373 -1 c8 -32 186 -110 251 -110 70 0 96
9 96 31 0 15 7 19 34 19 l34 0 7 -74 c4 -41 4 -79 1 -85 -4 -6 -20 -11 -37
-11 -22 0 -29 5 -29 20 0 18 -7 20 -68 20 -72 0 -73 0 -250 -111 -13 -8 -21
-21 -19 -31 5 -16 -18 -28 -55 -28 -15 0 -18 9 -18 53 l0 52 90 49 c50 27 89
51 87 52 -1 2 -45 20 -97 41 l-95 39 -3 47 -3 47 34 0 c26 0 36 -5 40 -20z
m-7013 -420 c28 -15 40 -64 40 -161 0 -133 0 -133 -270 -145 -193 -8 -199 -5
-211 102 -13 117 -11 140 15 171 22 25 31 28 117 34 156 10 289 10 309 -1z
m7110 -41 c0 -39 0 -39 -40 -39 l-41 0 3 -67 3 -68 158 -9 c86 -5 160 -6 163
-3 4 3 9 35 11 71 l6 66 -72 0 -71 0 0 -35 c0 -33 -2 -35 -35 -35 l-36 0 3 78
3 77 130 -4 c72 -2 133 -5 138 -8 4 -2 7 -54 7 -114 0 -124 -13 -164 -57 -175
-41 -11 -355 3 -385 16 -43 20 -50 51 -42 177 l7 114 73 -2 74 -2 0 -38z
m-7030 -464 c13 -85 21 -157 19 -160 -19 -18 -83 0 -243 69 -98 43 -180 75
-183 72 -3 -2 -1 -33 4 -68 l8 -63 41 3 c41 3 42 3 48 -33 4 -21 6 -38 4 -40
-2 -1 -36 -6 -76 -12 -69 -9 -73 -8 -77 11 -8 34 -45 274 -45 291 0 34 73 16
255 -64 99 -43 181 -78 181 -77 1 0 -3 31 -9 67 l-10 66 -43 -5 c-44 -5 -44
-4 -44 27 0 17 -1 34 -2 39 -3 6 90 28 133 31 13 1 20 -28 39 -154z m7110 106
c158 -27 177 -32 197 -56 27 -31 26 -26 9 -132 -14 -90 -34 -130 -69 -138 -31
-8 -374 50 -393 66 -30 25 -34 55 -18 145 18 100 27 122 57 134 31 12 23 13
217 -19z m-7049 -406 l12 -50 -134 -127 c-74 -71 -127 -126 -119 -124 71 23
291 86 297 86 13 0 37 -100 27 -110 -5 -4 -21 -10 -35 -14 -21 -5 -28 -2 -32
14 -4 17 -9 18 -34 10 -84 -28 -339 -100 -354 -100 -11 0 -19 11 -23 33 -6 32
-1 38 124 162 71 71 128 130 127 131 -2 2 -25 -4 -52 -12 -153 -46 -249 -73
-255 -69 -13 8 -33 96 -24 105 5 5 21 12 37 15 21 6 27 4 27 -9 0 -23 19 -20
180 28 127 38 145 45 143 63 -2 15 6 23 30 30 38 11 42 7 58 -62z m7206 -29
c3 -2 -75 -298 -80 -302 -2 -2 -18 -1 -35 2 -25 5 -32 12 -32 30 0 13 -2 24
-6 24 -3 0 -73 18 -156 40 -149 40 -167 41 -168 8 0 -6 -58 7 -66 15 -4 3 32
147 39 153 2 2 18 1 36 -2 28 -6 32 -10 28 -30 -2 -13 -2 -24 0 -24 2 0 73
-19 159 -41 85 -23 157 -39 160 -36 10 10 32 107 26 111 -4 2 -24 7 -45 11
-39 8 -43 17 -28 58 l10 25 78 -20 c43 -11 79 -21 80 -22z m-342 -346 c165
-63 195 -83 194 -129 0 -34 -50 -166 -72 -191 -32 -38 -58 -35 -231 30 -90 34
-174 71 -185 81 -28 26 -27 62 5 151 32 88 56 118 98 118 17 0 103 -27 191
-60z m-6695 -132 c11 -24 19 -50 19 -58 0 -8 -74 -71 -164 -140 -137 -105
-163 -128 -158 -146 3 -17 -2 -24 -26 -32 -30 -11 -32 -10 -51 28 -11 22 -20
45 -20 52 0 7 25 31 56 53 31 22 58 43 60 46 2 4 -8 32 -22 63 -23 50 -28 55
-52 50 -15 -2 -49 -8 -75 -13 l-49 -9 -19 45 c-10 25 -19 46 -19 48 0 2 14 8
31 14 26 9 34 8 43 -5 12 -15 38 -13 351 36 28 4 56 8 63 9 7 0 22 -18 32 -41z
m6368 -144 c17 -11 20 -20 13 -32 -8 -14 18 -32 167 -114 98 -53 177 -100 177
-105 -1 -4 -7 -21 -15 -36 l-14 -29 -191 4 -191 3 136 -74 c74 -40 139 -77
144 -82 10 -9 -32 -112 -43 -106 -3 1 -18 9 -33 16 -21 11 -26 19 -22 35 4 18
-14 31 -138 99 -127 71 -143 77 -154 62 -11 -15 -15 -15 -43 0 -17 8 -31 18
-31 21 0 8 53 98 61 104 4 3 87 3 185 0 99 -3 180 -6 181 -5 1 0 -63 36 -142
79 l-144 79 25 48 c26 53 37 58 72 33z m-6227 -146 l19 -38 -100 -155 c-65
-102 -92 -152 -78 -144 11 6 74 42 139 80 65 38 121 69 123 69 6 0 56 -83 56
-92 0 -3 -12 -14 -27 -23 -25 -17 -27 -17 -39 -1 -11 16 -28 8 -185 -83 -95
-56 -175 -101 -179 -101 -3 0 -14 14 -24 30 l-18 31 88 142 c48 78 94 152 102
165 10 16 -15 4 -90 -42 -110 -67 -188 -110 -193 -104 -1 2 -14 24 -29 50
l-27 47 31 16 c28 15 33 15 43 1 10 -13 31 -4 155 67 127 73 142 84 137 104
-4 17 1 26 22 37 32 17 39 12 74 -56z m5989 -277 c20 -16 22 -22 11 -34 -11
-14 7 -30 124 -118 120 -90 137 -100 148 -85 11 15 14 14 40 -7 l28 -22 -26
-35 c-15 -19 -30 -41 -35 -49 -6 -12 -25 -2 -91 47 -55 42 -86 59 -94 52 -6
-5 -25 -29 -42 -53 l-32 -44 84 -62 84 -62 -36 -49 -36 -49 -29 20 c-30 22
-33 30 -18 45 7 7 -31 41 -121 109 -114 84 -135 96 -151 86 -15 -9 -24 -8 -43
6 -13 10 -25 20 -25 24 0 10 62 89 71 89 5 0 43 -25 83 -55 40 -30 77 -55 82
-55 5 0 25 24 45 52 l36 52 -78 59 c-44 32 -79 63 -79 69 0 15 54 88 65 88 6
0 21 -9 35 -19z m-5629 -268 c56 -62 63 -49 -101 -193 -82 -73 -150 -135 -150
-139 0 -11 81 -101 91 -101 7 0 158 128 286 242 21 20 21 20 57 -19 19 -21 35
-42 35 -48 0 -5 -11 -18 -25 -28 -23 -17 -27 -17 -37 -4 -10 13 -31 -1 -139
-98 -131 -115 -159 -132 -200 -116 -36 13 -135 126 -143 161 -9 42 12 71 114
161 169 148 157 135 141 154 -12 15 -11 19 10 36 32 24 32 24 61 -8z m5418
-176 c1 -4 -7 -20 -18 -35 l-20 -27 -31 30 -32 30 -44 -50 c-37 -42 -42 -52
-31 -67 6 -9 61 -61 121 -114 l108 -96 49 48 49 48 -29 31 c-27 28 -28 31 -14
53 9 12 21 22 27 22 6 -1 36 -23 66 -50 l54 -49 -58 -63 c-100 -107 -113 -118
-150 -118 -29 0 -52 16 -158 111 -148 134 -157 145 -158 184 0 24 17 50 81
122 l82 92 52 -47 c28 -26 52 -51 54 -55z m-5063 -216 c-3 -9 -21 -83 -41
-166 -20 -82 -38 -157 -40 -165 -3 -8 7 -1 22 17 16 17 63 72 107 122 43 50
81 91 83 91 13 0 83 -63 83 -74 0 -24 -37 -49 -56 -38 -14 8 -35 -11 -123
-112 -58 -67 -118 -137 -133 -155 l-28 -33 -29 24 c-17 13 -30 25 -30 28 -1 3
19 87 42 188 24 101 38 177 32 170 -7 -7 -53 -61 -104 -120 -51 -59 -96 -110
-101 -113 -5 -3 -27 11 -49 31 l-40 36 21 29 c19 25 23 27 37 14 15 -12 29 0
128 115 93 107 110 130 98 140 -13 11 -12 16 6 41 l21 29 49 -41 c32 -27 48
-47 45 -58z m4756 -9 l47 -57 -24 -25 -25 -24 -29 28 c-33 32 -33 32 -98 -27
l-32 -30 36 -43 c19 -24 39 -44 43 -44 5 0 32 20 61 45 l53 45 26 -25 c22 -23
23 -27 9 -38 -8 -7 -35 -29 -59 -49 l-43 -37 43 -51 c23 -27 46 -50 50 -50 13
0 99 74 99 86 1 6 -10 21 -24 34 l-25 24 22 23 c12 13 26 23 32 23 11 0 94
-98 96 -113 0 -4 -21 -26 -47 -49 -27 -22 -75 -64 -107 -92 -92 -80 -90 -79
-116 -51 -19 20 -21 27 -10 40 10 13 10 19 -2 33 -8 9 -54 64 -103 122 -49 58
-90 107 -92 110 -2 2 -12 -1 -23 -8 -16 -10 -22 -8 -40 15 -17 22 -18 29 -8
39 30 30 233 203 238 203 3 0 26 -26 52 -57z m-307 -249 l37 -56 -23 -18 c-31
-24 -44 -24 -61 3 -14 21 -17 22 -42 9 -14 -8 -26 -18 -26 -23 0 -5 41 -69 90
-143 79 -118 93 -134 109 -126 14 8 22 6 33 -7 30 -34 27 -40 -42 -86 -38 -25
-72 -46 -74 -46 -2 0 -11 12 -21 26 -15 23 -15 27 -1 43 15 16 9 28 -74 152
-49 73 -93 135 -97 136 -5 1 -19 -6 -32 -16 -23 -17 -23 -19 -7 -42 9 -13 16
-26 16 -29 0 -7 -60 -43 -64 -38 -31 39 -67 101 -64 110 4 10 284 205 299 207
3 1 23 -24 44 -56z m-4114 6 c32 -23 59 -46 59 -51 0 -5 -7 -20 -16 -33 -13
-20 -19 -22 -34 -12 -11 6 -21 9 -23 7 -26 -33 -179 -252 -183 -264 -3 -9 -1
-16 5 -16 17 0 13 -25 -8 -51 l-18 -23 -61 45 c-34 24 -62 48 -62 52 0 4 7 19
16 32 13 20 20 23 35 15 16 -9 31 7 115 125 80 112 94 138 84 150 -10 12 -9
20 4 40 9 14 19 25 22 25 3 0 32 -19 65 -41z m159 -109 c22 -11 40 -24 40 -28
0 -4 -22 -86 -50 -182 -27 -96 -48 -176 -46 -177 2 -2 20 16 41 39 21 24 79
85 129 137 l91 93 42 -23 c48 -26 48 -27 31 -64 -9 -21 -16 -25 -38 -20 -25 5
-41 -8 -168 -141 l-141 -147 -41 18 c-23 10 -43 21 -45 25 -2 4 20 98 50 210
46 177 52 205 39 215 -13 9 -13 15 -3 38 15 32 19 33 69 7z m3403 -235 c15
-35 27 -68 27 -74 0 -8 -60 -35 -65 -29 -2 2 -10 17 -19 35 -18 35 -25 35 -96
-2 l-29 -15 21 -47 c11 -27 24 -51 27 -56 4 -4 38 6 75 23 38 17 69 30 71 28
8 -10 25 -48 25 -57 0 -6 -16 -18 -35 -26 -19 -8 -50 -22 -69 -30 l-34 -15 26
-60 c23 -53 30 -60 49 -55 18 4 26 -1 38 -26 9 -17 15 -32 13 -34 -5 -4 -146
-65 -151 -65 -2 0 -10 14 -17 30 -11 26 -10 33 4 43 14 11 11 23 -35 127 -28
63 -58 131 -66 151 -12 29 -19 35 -37 32 -16 -4 -25 2 -34 23 -7 14 -10 29 -7
33 6 6 275 129 285 130 3 0 17 -28 33 -64z m-2908 -20 c107 -45 149 -68 147
-79 -1 -8 -14 -40 -28 -71 -20 -44 -30 -55 -43 -50 -9 4 -24 10 -33 12 -21 6
-22 10 -3 43 8 14 14 29 15 33 0 8 -102 57 -119 57 -5 0 -11 -8 -14 -17 -3
-10 -12 -35 -21 -56 l-17 -38 70 -31 c69 -30 69 -30 59 -59 -12 -35 -20 -36
-92 -4 -31 14 -59 25 -61 25 -6 0 -55 -108 -55 -121 0 -4 20 -17 44 -28 81
-36 83 -36 96 4 12 36 27 42 61 25 25 -14 24 -19 -10 -95 l-29 -64 -148 64
c-81 36 -149 67 -152 69 -2 3 0 17 5 33 7 20 16 28 33 28 19 0 31 19 87 148
59 138 63 150 47 162 -15 11 -16 16 -5 44 8 17 14 31 15 31 1 0 69 -29 151
-65z m353 -126 c134 -38 156 -57 149 -120 -8 -69 -35 -128 -62 -135 -22 -5
-23 -7 -7 -34 15 -25 15 -32 -1 -90 -16 -58 -17 -63 -1 -74 23 -17 10 -79 -14
-72 -10 3 -36 10 -59 17 -24 7 -43 15 -43 19 0 3 11 44 25 91 13 46 25 89 25
96 0 13 -102 46 -111 35 -3 -4 -16 -43 -28 -88 -31 -109 -28 -106 -84 -89 -66
20 -67 21 -55 56 8 23 15 29 29 26 19 -5 26 13 93 243 22 76 22 79 4 83 -15 4
-17 11 -12 34 9 39 14 45 30 39 8 -3 63 -20 122 -37z m2180 19 c27 -30 134
-353 126 -384 -9 -34 -34 -52 -114 -79 -92 -31 -130 -32 -157 -2 -24 26 -123
318 -123 363 0 46 18 63 105 94 100 35 135 37 163 8z m-1760 -117 c50 -10 95
-20 98 -24 8 -7 -5 -98 -15 -116 -6 -8 -19 -10 -43 -6 -32 6 -36 10 -34 38 1
30 -1 32 -47 40 -58 11 -66 5 -78 -55 -9 -52 1 -63 69 -73 64 -9 100 -30 108
-61 10 -37 -13 -165 -35 -194 -10 -14 -31 -27 -47 -29 -30 -3 -224 28 -236 38
-7 7 13 126 23 136 4 3 23 3 43 0 35 -7 36 -8 30 -44 l-6 -37 56 -10 c30 -6
60 -8 65 -5 5 3 13 30 19 58 11 63 7 68 -63 78 -107 15 -126 44 -107 158 14
81 26 105 55 117 31 12 40 12 145 -9z m1196 -23 c10 -38 7 -46 -15 -50 -17 -2
-30 -25 -61 -103 -38 -95 -39 -102 -31 -170 7 -62 11 -70 31 -73 14 -2 22 -10
22 -22 0 -10 3 -25 6 -33 4 -11 -12 -17 -76 -26 -45 -7 -83 -11 -85 -9 -1 2
-6 18 -10 36 -6 29 -4 34 15 39 21 6 22 9 15 72 -6 60 -13 74 -73 159 -50 71
-70 92 -89 92 -20 0 -23 5 -23 34 0 31 3 34 38 40 20 3 42 6 48 6 5 0 35 -38
65 -85 29 -47 56 -85 59 -85 3 0 15 34 28 75 39 130 36 125 86 125 37 0 45 -3
50 -22z m-890 -14 c44 -6 46 -8 46 -40 0 -29 -3 -34 -24 -34 -22 0 -23 -4 -29
-87 -4 -49 -9 -125 -13 -170 -7 -82 -7 -83 16 -83 18 0 21 -4 16 -22 -3 -13
-6 -29 -6 -35 0 -14 -59 -17 -122 -7 -35 6 -38 9 -38 40 0 27 4 34 20 34 24 0
25 6 39 170 15 169 15 170 -10 170 -15 0 -19 4 -15 16 3 9 6 24 6 35 0 21 28
24 114 13z m476 -74 l0 -70 -40 0 c-38 0 -40 2 -40 30 0 28 -3 30 -35 30 l-35
0 0 -57 c0 -32 3 -109 7 -170 5 -101 8 -113 25 -113 14 0 18 -8 18 -35 l0 -35
-85 0 -85 0 0 35 c0 28 4 35 20 35 19 0 20 7 20 170 l0 170 -35 0 c-33 0 -35
-2 -35 -36 0 -35 -1 -35 -37 -32 l-38 3 -3 67 -3 67 58 4 c32 2 118 4 191 5
l132 2 0 -70z"/>
<path d="M4548 8355 c-17 -53 -39 -157 -35 -161 3 -3 22 -4 44 -2 l39 3 -21
90 c-14 61 -23 84 -27 70z"/>
<path d="M5261 8250 c-16 -77 -16 -78 34 -86 58 -8 71 -2 79 36 15 77 12 82
-65 95 l-37 7 -11 -52z"/>
<path d="M5653 8188 c-15 -19 -103 -289 -98 -299 8 -12 104 -41 119 -36 13 5
106 265 106 295 0 26 -111 61 -127 40z"/>
<path d="M4210 7515 c-63 -8 -127 -14 -142 -14 l-28 -1 0 -254 0 -254 -97 -22
c-191 -44 -391 -114 -545 -191 -43 -22 -82 -39 -87 -39 -5 0 -48 55 -97 123
-48 67 -114 157 -146 199 l-59 78 -92 -57 c-103 -63 -241 -162 -332 -236 -102
-84 -245 -218 -245 -230 0 -7 66 -102 145 -211 l145 -199 -35 -41 c-123 -144
-257 -342 -334 -493 -23 -46 -46 -83 -51 -83 -4 0 -106 32 -227 71 -120 39
-225 72 -233 73 -37 3 -182 -441 -225 -688 -20 -120 -20 -133 8 -141 12 -4
120 -39 239 -77 217 -71 218 -71 211 -97 -14 -52 -7 -414 10 -536 10 -65 17
-125 17 -131 0 -8 -97 -44 -235 -89 -129 -41 -235 -78 -235 -80 0 -24 57 -237
93 -345 44 -132 141 -365 178 -426 l19 -32 133 43 c72 24 180 59 238 78 l107
34 58 -91 c86 -133 164 -235 263 -344 l87 -97 -138 -190 c-77 -104 -142 -196
-145 -203 -7 -17 22 -48 142 -147 163 -134 516 -363 545 -353 5 2 73 91 151
198 78 107 143 197 145 199 2 2 41 -13 88 -33 124 -54 266 -101 396 -131 63
-15 121 -29 128 -31 9 -3 12 -62 12 -253 l0 -251 23 -5 c34 -7 210 -23 337
-30 105 -6 388 7 468 21 l32 6 0 249 0 249 23 5 c12 3 66 14 121 26 112 23
306 84 415 129 40 16 77 28 81 25 4 -3 35 -42 67 -87 225 -313 228 -317 254
-302 155 86 210 118 304 179 95 62 224 160 344 263 l35 29 -147 202 -147 202
84 92 c114 123 182 210 272 345 66 98 79 112 97 106 12 -3 117 -37 233 -75
116 -38 215 -69 221 -69 11 0 104 192 151 310 44 112 88 251 121 377 l28 113
-236 78 c-206 67 -236 80 -235 97 1 11 9 83 19 160 13 107 16 190 13 351 l-4
212 238 77 c131 42 238 80 238 83 0 4 -7 48 -16 97 -32 188 -106 442 -176 610
-16 39 -32 78 -35 88 -3 9 -11 17 -17 17 -6 0 -115 -33 -241 -74 -126 -41
-230 -74 -231 -73 0 1 -22 43 -48 92 -70 131 -201 325 -300 443 -55 64 -84
107 -79 115 4 6 66 93 138 192 72 99 134 186 139 192 11 19 -156 170 -341 309
-76 57 -323 214 -336 214 -2 0 -63 -82 -136 -182 -72 -101 -138 -191 -146
-202 -13 -18 -19 -16 -127 32 -187 83 -414 153 -600 186 l-38 7 0 249 0 250
-22 5 c-117 25 -481 31 -668 10z m332 -652 c-3 -20 1 -23 32 -23 36 0 36 0 36
-44 0 -43 -1 -45 -32 -48 -30 -3 -33 -6 -34 -38 0 -19 10 -55 23 -79 14 -27
23 -61 23 -90 l0 -46 53 3 c43 3 56 0 71 -17 26 -28 23 -75 -9 -146 -14 -32
-25 -66 -25 -76 0 -11 -4 -19 -8 -19 -15 0 -50 44 -66 83 -17 42 -39 45 -44 8
-5 -33 16 -78 49 -105 84 -71 279 -19 279 73 0 45 -24 39 -39 -9 -20 -68 -91
-92 -91 -31 1 71 20 164 37 183 31 35 71 51 102 40 26 -9 29 -7 51 35 27 51
118 113 132 90 13 -21 9 -107 -8 -138 -15 -29 -14 -31 15 -59 34 -31 38 -57
17 -99 -20 -38 -104 -113 -117 -105 -7 4 -9 25 -6 55 3 27 2 49 -2 49 -11 0
-31 -47 -31 -75 0 -56 108 -92 177 -59 40 20 56 51 88 166 19 70 52 111 101
126 21 6 40 10 42 8 12 -13 -182 -361 -231 -413 l-20 -23 -612 0 -611 0 -61
93 c-65 98 -186 331 -177 340 8 8 66 -13 88 -32 27 -24 44 -62 62 -137 8 -37
24 -80 35 -96 38 -52 137 -61 193 -17 29 22 32 40 15 88 -15 44 -30 39 -23 -8
3 -21 2 -47 -4 -56 -8 -16 -14 -13 -56 26 -82 75 -95 123 -46 169 29 27 29 29
15 56 -15 29 -20 109 -9 138 13 33 120 -46 143 -106 9 -25 13 -27 36 -18 31
12 80 -6 109 -38 26 -29 42 -190 21 -211 -21 -22 -61 10 -76 59 -15 48 -39 54
-39 9 0 -45 47 -85 116 -99 75 -16 127 -5 168 34 37 34 57 99 38 118 -14 14
-42 -7 -42 -32 0 -20 -46 -80 -61 -80 -5 0 -9 9 -9 20 0 12 -6 33 -14 48 -34
67 -47 125 -35 154 13 32 40 42 98 36 l40 -3 -1 42 c0 23 9 60 21 85 11 25 21
63 21 86 0 40 -1 42 -30 42 -29 0 -30 2 -30 45 0 43 1 45 30 45 26 0 30 4 30
26 0 24 2 25 48 22 42 -3 47 -5 44 -25z m1565 -2020 c-4 -1190 -3 -1156 -52
-1328 -112 -391 -427 -748 -829 -941 -479 -230 -1009 -227 -1479 7 -381 190
-664 509 -791 889 -66 199 -66 196 -66 1404 l0 1086 1610 0 1611 0 -4 -1117z"/>
<path d="M2983 4793 c4 -1191 -1 -1113 69 -1318 39 -114 81 -198 157 -312 96
-143 91 -148 91 91 l0 206 -35 0 -35 0 0 70 0 70 90 0 90 0 0 -55 0 -55 120 0
120 0 0 55 0 55 70 0 70 0 0 -55 0 -55 115 0 115 0 0 55 0 55 70 0 70 0 0 -55
0 -55 115 0 115 0 0 55 0 55 70 0 70 0 0 -55 0 -55 120 0 120 0 0 55 0 55 70
0 70 0 0 -55 0 -55 115 0 115 0 0 55 0 55 70 0 70 0 0 -55 0 -55 118 0 119 0
-2 55 -2 55 93 0 94 0 0 -70 0 -70 -35 0 -35 0 0 -241 c0 -276 -7 -265 90
-143 122 153 204 313 257 501 l28 98 3 1098 3 1097 -1516 0 -1516 0 4 -1077z
m1632 818 c-3 -7 0 -19 6 -27 7 -9 7 -19 -1 -34 l-11 -21 -30 26 c-17 14 -37
25 -44 25 -21 0 -27 17 -14 38 7 11 20 17 29 15 10 -3 21 0 24 6 10 15 48 -10
41 -28z m-376 -27 c57 -48 61 -126 9 -181 l-21 -23 21 0 c24 0 30 -28 10 -48
-9 -9 -6 -12 16 -12 25 0 28 -3 24 -25 -5 -22 -2 -25 21 -25 43 0 97 73 106
142 7 53 6 57 -19 73 -17 12 -36 15 -56 11 -27 -5 -30 -3 -30 20 0 32 25 80
45 88 37 14 75 6 90 -18 14 -20 22 -24 50 -19 27 4 39 0 59 -20 14 -15 26 -37
26 -51 0 -23 -5 -31 -46 -65 -12 -10 -15 -25 -11 -59 6 -55 35 -96 71 -100 24
-3 26 -1 20 22 -5 23 -3 26 20 26 23 0 25 3 20 30 -6 26 -4 30 16 30 23 0 23
0 -3 26 -77 76 -18 204 93 204 92 0 144 -81 121 -190 -6 -28 -11 -53 -11 -55
0 -2 18 -10 40 -16 77 -23 33 -84 -57 -77 l-47 3 3 -50 c3 -60 12 -72 57 -81
38 -7 45 -31 17 -56 -45 -39 -106 -29 -142 23 l-23 34 7 -75 c4 -41 9 -78 12
-82 2 -4 22 -13 43 -19 45 -14 50 -29 20 -59 -32 -32 -95 -27 -130 10 -16 17
-32 45 -36 63 -7 30 -8 28 -16 -26 -6 -49 -4 -65 12 -97 17 -33 24 -38 67 -44
63 -8 77 -18 68 -46 -5 -15 -13 -20 -26 -17 -15 4 -17 2 -9 -13 14 -25 13 -27
-12 -33 -16 -4 -32 3 -60 28 -31 29 -46 35 -83 35 -43 0 -45 1 -45 30 0 25 4
30 25 30 29 0 30 2 10 39 -13 27 -47 46 -59 33 -10 -9 -7 -99 4 -128 15 -40
39 -53 93 -54 26 0 47 -3 47 -6 0 -16 -36 -64 -56 -74 -12 -7 -36 -10 -53 -8
-29 4 -32 2 -41 -33 -6 -20 -19 -48 -29 -60 l-19 -23 -21 34 c-11 19 -23 47
-26 62 -6 24 -10 27 -31 22 -39 -10 -71 4 -93 40 -12 18 -21 36 -21 40 0 3 22
6 48 6 65 0 91 27 99 103 3 31 3 62 0 70 -9 24 -56 8 -72 -24 -20 -37 -19 -37
13 -41 21 -2 27 -8 27 -28 0 -23 -4 -25 -47 -28 -38 -2 -55 -10 -84 -38 -25
-23 -43 -32 -56 -28 -20 6 -24 24 -7 41 9 9 7 11 -9 6 -14 -3 -24 2 -32 16
-10 19 -7 23 24 36 20 8 48 15 64 15 26 0 32 6 49 48 15 37 18 59 13 102 -4
30 -8 47 -9 37 -2 -29 -40 -96 -60 -107 -33 -17 -89 -12 -111 10 -30 30 -25
45 20 59 21 6 41 15 43 19 3 4 8 41 12 82 l6 75 -20 -31 c-38 -62 -133 -67
-159 -9 -12 26 -10 29 30 39 43 10 58 32 58 85 l0 48 -50 -5 c-53 -5 -83 10
-93 47 -3 14 5 20 40 30 40 10 44 14 38 34 -39 129 11 227 115 227 37 0 55 -6
79 -26z m-555 -189 c52 -25 104 -79 127 -131 49 -111 29 -214 -58 -302 -29
-29 -53 -55 -53 -56 0 -2 24 -8 54 -15 l54 -12 35 -87 c18 -48 32 -89 31 -91
-2 -2 -40 25 -85 59 l-81 63 -18 -23 c-17 -22 -17 -26 1 -78 24 -69 24 -66 -6
-45 -17 13 -24 28 -25 50 0 29 -4 33 -41 43 -33 9 -39 14 -34 31 10 30 -21 36
-44 8 l-18 -23 -66 52 -65 52 -25 -33 -25 -33 59 -48 c32 -26 59 -51 59 -54
-1 -17 -40 -52 -64 -58 -25 -6 -35 -27 -17 -38 5 -3 33 -1 63 5 51 10 57 15
84 60 29 50 33 53 72 43 47 -13 18 -64 -63 -109 -27 -15 -80 -50 -117 -76
l-67 -48 -50 93 c-28 51 -51 99 -51 105 0 7 18 36 40 65 22 29 40 55 40 58 0
3 -40 38 -89 79 -61 50 -95 86 -105 112 -9 20 -16 40 -16 43 0 4 19 4 42 0 32
-5 64 -25 135 -82 78 -63 97 -73 109 -63 13 10 10 16 -20 41 -83 68 -111 209
-62 313 28 60 75 107 136 135 57 26 165 24 224 -5z m1781 1 c52 -24 102 -72
132 -129 12 -23 18 -55 18 -112 0 -88 -14 -127 -66 -184 -24 -26 -34 -32 -52
-25 -44 15 -193 16 -249 1 l-55 -14 -57 100 c-31 55 -56 112 -56 127 0 94 83
212 170 243 69 24 155 21 215 -7z m-325 -491 c0 -22 -10 -109 -22 -193 l-23
-153 -50 3 -50 3 -3 71 c-2 59 2 83 28 150 27 72 30 89 30 199 l0 120 45 -80
c31 -56 45 -92 45 -120z m566 48 c-3 -7 0 -13 7 -13 7 0 26 -11 42 -24 l30
-25 -52 -52 -52 -53 -26 24 c-14 13 -25 32 -25 43 0 19 -1 20 -20 2 -19 -17
-19 -20 -4 -36 19 -21 67 -206 57 -221 -10 -17 -186 -1 -246 23 -51 20 -67 33
-67 55 0 25 33 23 88 -5 46 -23 61 -26 80 -18 33 15 24 42 -15 42 -17 0 -35 3
-39 8 -4 4 20 36 55 71 53 53 60 64 47 75 -12 10 -25 1 -80 -56 -59 -62 -67
-67 -86 -55 -17 10 -26 9 -60 -13 -42 -27 -46 -35 -30 -66 10 -18 7 -19 -50
-19 l-60 0 0 -85 0 -85 80 0 80 0 0 64 0 63 58 -18 c31 -10 84 -22 117 -26
l60 -8 12 -145 c6 -80 16 -197 22 -260 6 -63 11 -134 11 -157 l0 -43 -255 0
-255 0 0 283 c0 253 2 301 27 473 l27 192 58 16 c84 23 201 20 262 -7 l49 -22
60 62 c58 60 61 62 79 46 10 -9 16 -23 14 -30z m-1847 -301 l43 -37 -7 -58
c-5 -37 -12 -57 -20 -57 -28 0 -105 104 -125 169 -11 35 -20 67 -20 73 0 11
64 -34 129 -90z m-199 -12 c0 -5 -4 -10 -10 -10 -5 0 -10 5 -10 10 0 6 5 10
10 10 6 0 10 -4 10 -10z m64 -27 c4 -14 32 -54 62 -89 l55 -62 -8 -254 -8
-253 -252 -3 -253 -2 0 46 c0 26 7 119 15 208 8 88 16 181 17 206 3 43 5 46
84 101 45 31 102 69 126 83 40 23 47 25 58 11 26 -31 80 -12 80 28 0 26 16 13
24 -20z m1596 -58 l0 -45 -40 0 -40 0 0 45 0 45 40 0 40 0 0 -45z m-1130 -160
l0 -55 45 0 45 0 0 55 0 55 70 0 70 0 0 -55 0 -55 45 0 45 0 0 55 0 55 70 0
70 0 0 -55 0 -55 45 0 45 0 0 55 0 55 70 0 70 0 0 -98 0 -99 -45 -57 -45 -58
0 -229 0 -229 -50 0 -50 0 0 -55 0 -55 -40 0 -40 0 0 55 0 55 -147 0 -148 0 3
-55 4 -55 -41 0 -41 0 0 54 0 55 -47 3 -48 3 -5 230 -5 230 -42 53 -43 54 0
99 0 99 70 0 70 0 0 -55z m-380 -615 l0 -100 -120 0 -120 0 0 -55 0 -55 -40 0
-40 0 0 55 0 55 -95 0 -95 0 0 100 0 100 255 0 255 0 0 -100z m1820 0 l0 -100
-95 0 -95 0 0 -55 0 -55 -40 0 -40 0 0 55 0 55 -120 0 -120 0 0 100 0 100 255
0 255 0 0 -100z"/>
<path d="M3500 5312 c-33 -16 -61 -53 -75 -99 -6 -21 -3 -23 34 -23 23 0 41 5
41 10 0 24 41 50 80 50 32 0 43 -5 57 -26 14 -22 15 -31 4 -58 -6 -17 -13 -34
-14 -39 -1 -4 12 -16 30 -28 l32 -20 15 29 c40 78 24 155 -43 199 -42 28 -111
30 -161 5z"/>
<path d="M5294 5316 c-35 -15 -68 -57 -78 -98 -6 -27 -5 -28 34 -28 22 0 40 5
40 10 0 23 41 50 75 50 37 0 75 -28 75 -55 0 -9 -7 -29 -15 -45 -14 -27 -14
-29 18 -49 30 -19 33 -19 45 -4 7 10 17 34 23 55 18 68 -12 133 -78 167 -29
15 -101 13 -139 -3z"/>
<path d="M4312 3284 c-106 -28 -182 -74 -273 -164 -71 -70 -94 -102 -128 -172
-44 -90 -71 -192 -71 -268 l0 -46 88 -32 c199 -74 360 -104 562 -104 191 0
356 27 528 88 l72 26 0 48 c0 67 -25 178 -56 252 -76 181 -239 324 -424 373
-70 19 -228 18 -298 -1z m178 -109 c0 -8 7 -15 15 -15 10 0 15 -10 15 -30 0
-20 -5 -30 -15 -30 -8 0 -15 -7 -15 -15 0 -9 -9 -15 -25 -15 -15 0 -25 6 -25
14 0 7 -9 16 -20 19 -12 3 -20 14 -20 27 0 13 8 24 20 27 11 3 20 12 20 19 0
8 10 14 25 14 16 0 25 -6 25 -15z m-115 -126 c70 -85 92 -107 100 -96 49 67
171 207 181 207 17 0 37 -27 29 -40 -3 -5 0 -10 8 -10 7 0 24 -11 36 -24 l23
-25 -42 -50 c-24 -28 -49 -51 -56 -51 -7 0 -23 13 -35 29 l-22 30 -49 -59 -49
-60 43 -54 c46 -58 37 -55 174 -72 l46 -5 -7 -87 c-9 -115 -11 -123 -38 -118
-12 3 -57 8 -101 11 l-79 7 7 86 6 87 -44 52 -43 52 -43 -52 -42 -52 7 -86 7
-87 -79 -7 c-43 -3 -89 -7 -103 -8 -25 -2 -25 0 -34 96 -5 53 -7 99 -4 102 2
3 27 7 54 10 109 13 110 13 159 70 l47 55 -53 61 c-47 55 -54 59 -60 41 -7
-18 -37 -42 -52 -42 -3 0 -24 23 -47 50 l-43 51 23 24 c13 14 30 25 37 25 8 0
11 5 8 10 -8 13 12 40 29 40 6 0 51 -50 101 -111z"/>
<path d="M4250 2723 c-23 -4 -25 -7 -21 -55 l3 -50 37 6 c20 3 43 6 51 6 12 0
14 11 12 50 -4 54 -6 55 -82 43z"/>
<path d="M4598 2680 c-2 -39 0 -50 12 -50 8 0 32 -3 53 -6 l37 -7 0 50 c0 49
-1 51 -31 57 -63 12 -67 10 -71 -44z"/>
<path d="M6847 7461 l-77 -59 36 -27 c19 -15 37 -25 38 -24 6 7 86 169 84 169
-2 0 -38 -27 -81 -59z"/>
<path d="M1122 6408 c-23 -29 -53 -101 -45 -108 10 -10 277 -150 286 -150 9 0
57 95 57 112 0 12 -258 158 -279 158 -5 0 -13 -6 -19 -12z"/>
<path d="M920 5994 c-11 -26 -20 -50 -20 -54 0 -9 111 -50 121 -44 12 7 37 91
30 100 -8 12 -78 44 -96 44 -8 0 -23 -21 -35 -46z"/>
<path d="M7953 5992 l-81 -17 15 -37 c8 -21 18 -38 22 -38 7 0 125 82 146 101
12 12 -4 10 -102 -9z"/>
<path d="M839 4720 c-2 -28 -2 -56 1 -60 3 -5 28 -12 57 -16 45 -6 52 -4 62
14 6 11 11 39 11 61 0 33 -4 41 -19 41 -10 0 -39 3 -64 6 l-45 6 -3 -52z"/>
<path d="M740 4390 c-58 -4 -106 -8 -107 -9 -2 0 -3 -30 -3 -65 0 -45 4 -65
14 -69 21 -8 310 13 320 23 6 6 6 32 0 67 l-9 58 -55 1 c-30 1 -102 -2 -160
-6z"/>
<path d="M7996 3983 c-17 -89 -18 -100 -2 -106 39 -15 307 -50 315 -42 5 6 12
36 16 67 7 67 25 57 -161 88 -158 26 -161 26 -168 -7z"/>
<path d="M7814 3262 c-15 -10 -47 -101 -41 -115 6 -16 282 -121 299 -114 7 2
21 28 31 57 22 63 20 66 -68 99 -185 70 -212 79 -221 73z"/>
<path d="M1160 3109 c-25 -4 -59 -11 -77 -14 l-31 -6 15 -39 c9 -22 19 -40 22
-40 3 1 40 25 81 55 76 56 75 60 -10 44z"/>
<path d="M3452 1077 c-7 -24 -14 -52 -18 -61 -6 -17 13 -27 73 -40 37 -8 48 6
59 73 6 38 5 41 -22 52 -16 6 -41 13 -55 16 -24 4 -27 1 -37 -40z"/>
<path d="M5558 1132 c-26 -9 -50 -20 -53 -24 -10 -10 88 -300 104 -306 19 -7
121 28 121 42 0 33 -98 301 -111 303 -8 1 -35 -6 -61 -15z"/>
</g>
</svg>
