<svg version="1.1" id="Layer_1" xmlns="http://www.w3.org/2000/svg" xmlns:xlink="http://www.w3.org/1999/xlink" x="0px" y="0px"
	 width="100%" viewBox="0 0 896 896" enable-background="new 0 0 896 896" xml:space="preserve">
<path fill="#edc24a" opacity="1.000000" stroke="none" 
	d="
M215.264008,434.722534 
	C232.569977,456.143005 263.216644,461.168396 286.039246,448.212677 
	C301.066406,439.682251 310.488586,426.817291 312.560303,409.329224 
	C313.019867,405.449890 314.697021,404.045105 318.258301,404.102295 
	C323.751312,404.190521 329.247589,404.416046 334.736664,404.302277 
	C339.195465,404.209869 340.464844,406.127625 340.038727,410.414093 
	C337.338593,437.575348 324.310730,458.352570 300.698059,471.735840 
	C267.571899,490.511292 227.123123,485.460449 200.687408,460.118439 
	C162.155334,423.180511 172.302704,359.996155 220.444244,336.878571 
	C240.849579,327.079865 261.869629,325.253021 283.588562,331.664368 
	C289.223877,333.327881 289.446533,333.822418 287.225677,339.361481 
	C285.741119,343.064117 284.088837,346.708466 282.794617,350.476135 
	C281.236450,355.012024 279.034393,356.494171 273.861328,355.053772 
	C258.237183,350.703217 243.141495,352.535248 229.174667,361.110321 
	C202.443298,377.522278 197.231079,411.365051 215.264008,434.722534 
z"/>
<path fill="#000000" opacity="1.000000" stroke="none" 
	d="
M339.317688,449.330139 
	C346.609039,437.050720 350.204407,423.959747 351.463257,410.226898 
	C351.792847,406.631104 353.286316,405.699005 356.487762,405.798645 
	C360.815735,405.933319 365.151123,405.822968 369.483276,405.832489 
	C376.211548,405.847321 376.772369,406.293915 376.166138,412.909210 
	C374.353943,432.684753 368.266571,450.954926 356.705688,467.264709 
	C323.150177,514.604004 260.265289,530.766052 207.027069,505.728455 
	C199.467224,502.173096 192.362473,497.863647 185.404724,493.254700 
	C182.001938,491.000671 181.848526,488.881378 184.547699,486.052979 
	C187.767044,482.679474 191.047516,479.337372 193.965805,475.711487 
	C196.559540,472.488892 198.786362,472.050598 202.298767,474.597076 
	C213.463455,482.691376 225.655457,488.626953 239.288193,491.478516 
	C278.721924,499.726959 317.391968,483.573425 339.317688,449.330139 
z"/>
<path fill="#000000" opacity="1.000000" stroke="none" 
	d="
M661.745789,399.077484 
	C666.538086,375.605560 692.859009,365.086395 712.675415,378.304932 
	C720.665955,383.635010 726.487610,398.621460 724.472961,408.021423 
	C723.863220,410.865936 721.926392,410.810699 719.997742,410.812836 
	C707.681946,410.826538 695.365417,410.794830 683.050537,410.654388 
	C680.556519,410.625916 678.098877,410.407898 675.734314,411.262665 
	C674.405518,419.358643 677.905884,425.358185 685.715149,427.851562 
	C695.468018,430.965424 705.160889,429.911041 714.598328,426.480957 
	C717.802734,425.316284 719.828979,425.030640 720.977722,428.961609 
	C722.010010,432.494171 720.944275,434.106476 717.483643,435.108582 
	C705.702759,438.520203 693.980652,441.044922 681.693115,437.408386 
	C671.321106,434.338745 664.754150,428.017090 662.443115,417.324036 
	C661.163757,411.404236 660.757019,405.498199 661.745789,399.077484 
M710.643311,395.989288 
	C708.025452,386.156982 702.895813,382.791840 691.234924,383.257050 
	C682.982178,383.586273 676.901611,388.740417 675.431824,396.518433 
	C674.772278,400.008453 675.544678,401.814178 679.622009,401.722412 
	C688.422241,401.524414 697.232239,401.568237 706.034058,401.732849 
	C709.688599,401.801178 711.387390,400.571594 710.643311,395.989288 
z"/>
<path fill="#000000" opacity="1.000000" stroke="none" 
	d="
M521.675537,408.409576 
	C520.787048,410.852753 519.003906,410.548309 517.362000,410.563263 
	C504.551025,410.679749 491.747009,411.214996 478.927124,410.485657 
	C472.169525,410.101196 471.002411,412.069031 473.246368,418.615540 
	C475.306824,424.626678 479.877106,427.475372 485.797333,428.737000 
	C495.254456,430.752411 504.353973,429.386475 513.193848,425.849670 
	C516.053772,424.705414 517.189209,425.960144 517.808899,428.456055 
	C518.376465,430.741943 520.228943,433.395782 516.294006,434.496796 
	C505.726166,437.453705 495.303650,440.615906 483.960938,438.544434 
	C464.200958,434.935730 458.418823,423.321442 458.423431,405.678467 
	C458.424225,402.544434 458.941162,399.380463 459.503876,396.281891 
	C461.830475,383.471039 469.634857,375.803436 482.296173,373.923584 
	C487.412628,373.163879 492.573608,373.089020 497.715820,373.853302 
	C511.222992,375.860931 520.018250,385.247833 521.268372,399.059723 
	C521.537842,402.036499 521.607300,405.031342 521.675537,408.409576 
M504.839996,388.750122 
	C499.038361,382.424164 491.613037,382.337585 484.114899,383.911865 
	C477.867401,385.223572 474.322510,389.724976 472.718536,395.846130 
	C471.713074,399.683197 472.322784,401.863983 477.021973,401.741241 
	C484.981232,401.533325 492.950500,401.725586 500.915497,401.711700 
	C508.054932,401.699249 509.384155,399.784088 506.992767,392.933716 
	C506.559052,391.691345 505.864380,390.540070 504.839996,388.750122 
z"/>
<path fill="#000000" opacity="1.000000" stroke="none" 
	d="
M580.886841,437.664001 
	C577.510132,435.114044 576.622681,432.062622 576.589478,428.266907 
	C576.492126,417.128937 577.354126,405.968353 575.884460,394.851624 
	C574.789856,386.571930 571.039795,383.276550 562.651245,383.184998 
	C557.187988,383.125336 552.212952,385.034302 547.113464,386.522491 
	C543.936096,387.449799 543.990173,389.912109 544.000793,392.509979 
	C544.053833,405.494873 544.082581,418.480164 544.025452,431.464905 
	C544.015686,433.686646 544.826477,436.694275 542.137939,437.677185 
	C539.035461,438.811462 535.504578,438.808746 532.352417,437.645905 
	C530.305725,436.890869 530.840332,434.525269 530.837402,432.753571 
	C530.807739,414.940582 530.803833,397.127472 530.841309,379.314514 
	C530.844971,377.568054 530.289917,375.342651 532.502747,374.519287 
	C534.894653,373.629242 537.911255,373.242920 539.559692,375.252258 
	C542.391846,378.704468 545.326050,377.683380 548.519775,376.565704 
	C552.619812,375.130859 556.837280,374.197357 561.138245,373.662109 
	C578.872620,371.455322 587.933838,378.330048 589.068542,396.156677 
	C589.881287,408.924500 589.496887,421.787506 589.207336,434.598114 
	C589.072388,440.568176 584.300842,437.677704 580.886841,437.664001 
z"/>
<path fill="#000000" opacity="1.000000" stroke="none" 
	d="
M606.838074,378.705017 
	C621.282410,370.758209 635.744568,372.569489 650.239197,377.150055 
	C654.118225,378.375946 651.798523,381.159851 651.335205,383.386505 
	C650.810791,385.906860 649.629089,387.303040 646.786560,386.168152 
	C639.995911,383.457001 632.905334,382.842438 625.675903,383.301727 
	C624.844604,383.354553 624.003601,383.333588 623.182129,383.451294 
	C617.159241,384.314362 612.714478,387.410431 612.777649,391.197815 
	C612.870361,396.752625 617.787964,397.383972 621.565063,398.531006 
	C628.086670,400.511444 634.812195,401.808929 641.409302,403.554810 
	C649.719543,405.754059 653.955383,410.389771 654.710205,417.799957 
	C655.448853,425.051544 651.715332,431.889313 644.599915,435.198883 
	C630.541443,441.737946 616.213440,440.096649 602.266968,435.129456 
	C596.603455,433.112366 601.663513,429.119171 601.911743,426.179779 
	C603.847961,425.238464 605.159973,426.229431 606.541077,426.684357 
	C615.080444,429.497009 623.766052,430.337891 632.661316,428.770020 
	C634.682129,428.413818 636.509521,427.703400 638.132751,426.481110 
	C642.768188,422.990570 642.599670,418.754761 637.665588,415.662506 
	C635.827881,414.510773 633.836121,413.733734 631.675415,413.265076 
	C625.492737,411.923981 619.313110,410.546783 613.188477,408.966431 
	C606.922424,407.349609 601.432800,404.312775 599.976929,397.469513 
	C598.425171,390.176483 599.852844,383.504059 606.838074,378.705017 
z"/>
<path fill="#000000" opacity="1.000000" stroke="none" 
	d="
M418.203735,383.963898 
	C416.280762,384.718994 414.624023,385.157410 413.243561,386.032043 
	C408.993530,388.724609 408.949310,393.399170 413.126465,396.190765 
	C415.932678,398.066132 419.179657,398.879669 422.433563,399.635956 
	C428.264496,400.991150 434.156128,402.151886 439.888306,403.847382 
	C446.193726,405.712433 450.841339,409.563965 451.693848,416.571228 
	C452.538818,423.516296 450.566559,429.453674 444.552429,433.511780 
	C435.903870,439.347412 426.102753,439.708832 416.197388,438.972260 
	C411.057709,438.590027 406.014679,437.393036 401.050110,435.943848 
	C397.884796,435.019867 396.234589,433.635223 397.545929,429.837036 
	C398.736267,426.389313 400.281799,425.574768 403.757141,426.685577 
	C411.911774,429.292053 420.257996,430.681549 428.832550,428.876801 
	C430.130432,428.603607 431.426361,428.273315 432.678711,427.840668 
	C435.874939,426.736389 438.410431,424.836456 438.540649,421.187866 
	C438.668793,417.597260 435.960724,415.650055 433.099091,414.811981 
	C425.768951,412.665131 418.318604,410.911896 410.878845,409.160431 
	C401.072113,406.851685 396.214508,400.757660 396.664948,391.102661 
	C396.949432,385.004791 400.243073,380.848724 405.304749,377.967194 
	C414.953766,372.474182 425.412689,372.824463 435.907898,374.168732 
	C439.182922,374.588226 442.352417,375.784546 445.595764,376.511261 
	C449.178925,377.314056 450.026123,379.199707 448.878418,382.701874 
	C447.757507,386.122192 446.292633,387.123932 442.695251,385.780731 
	C434.904175,382.871613 426.788147,382.526947 418.203735,383.963898 
z"/>
<path fill="#000000" opacity="1.000000" stroke="none" 
	d="
M277.768738,385.132935 
	C287.767059,391.385986 294.819275,399.915070 300.824402,409.462891 
	C302.715393,412.469513 302.518890,415.011871 299.209808,418.122742 
	C290.586304,405.465607 279.819550,395.399841 265.696564,389.387756 
	C251.775436,383.461609 237.235077,382.203613 222.143646,384.333344 
	C222.255280,380.157227 223.521515,378.253601 226.933350,377.513428 
	C244.733658,373.651550 261.670288,375.293945 277.768738,385.132935 
z"/>
<path fill="#000000" opacity="1.000000" stroke="none" 
	d="
M247.130402,400.888824 
	C239.328278,399.551239 231.852005,400.546570 224.268692,400.228058 
	C224.353638,396.851929 225.806473,395.388977 228.616547,394.643799 
	C252.429047,388.329224 279.021088,399.960266 290.708344,421.800568 
	C292.060486,424.327332 292.344849,426.414276 289.218597,428.948853 
	C278.853455,414.432892 265.589203,404.019379 247.130402,400.888824 
z"/>
<path fill="#000000" opacity="1.000000" stroke="none" 
	d="
M231.615707,413.048096 
	C241.594025,411.255890 250.842789,411.783142 259.630981,416.533386 
	C266.283936,420.129395 271.147675,425.441864 275.146057,431.684937 
	C276.265228,433.432373 277.035583,435.259888 274.396759,437.628571 
	C263.352631,421.947662 247.972351,415.309540 229.264633,417.435272 
	C228.117416,414.540863 229.613373,413.815918 231.615707,413.048096 
z"/>
<path fill="#000000" opacity="1.000000" stroke="none" 
	d="
M429.796082,459.127075 
	C430.929321,456.130432 433.465546,457.666016 435.061615,457.390778 
	C440.563965,456.442078 446.221619,458.326447 451.870728,457.127045 
	C453.230835,456.838318 454.768677,458.056946 455.404266,459.526215 
	C457.919830,465.341187 457.379822,471.218872 456.261780,477.388550 
	C453.414307,476.359894 453.905792,474.476105 453.847168,472.929443 
	C453.746399,470.271240 453.795410,467.606140 453.828461,464.944489 
	C453.862946,462.165924 453.163116,459.695831 449.910980,459.714813 
	C446.754944,459.733215 445.198395,461.883453 445.083862,464.967224 
	C444.985077,467.626190 445.091156,470.293915 444.954041,472.949890 
	C444.874298,474.494354 445.403046,476.384857 443.040436,477.325714 
	C440.501221,474.499664 442.168427,471.052246 441.763763,467.965576 
	C441.548920,466.326996 441.734375,464.640045 441.618713,462.983337 
	C441.479370,460.987701 440.109283,460.066254 438.317932,459.834198 
	C436.105591,459.547577 434.426575,460.461761 433.474213,462.530334 
	C432.096100,465.523590 432.542572,468.726746 432.377808,471.869263 
	C432.287048,473.599426 432.974091,475.535034 430.211151,478.206970 
	C429.302490,471.305542 429.845123,465.373840 429.796082,459.127075 
z"/>
<path fill="#000000" opacity="1.000000" stroke="none" 
	d="
M484.402466,459.998047 
	C481.830261,459.158234 479.582611,461.326477 477.033997,459.776093 
	C478.720245,456.343292 481.809753,456.720215 484.597534,456.957947 
	C487.810730,457.231995 489.801178,459.321106 490.081238,462.480804 
	C490.489960,467.092133 490.526733,471.735016 489.894531,476.601135 
	C487.417542,476.563080 485.260193,477.272247 483.056000,477.824677 
	C479.182922,478.795380 475.919830,477.579193 474.789307,473.507294 
	C473.675629,469.496063 476.194702,467.295471 479.698456,466.102295 
	C480.943634,465.678223 482.309662,465.624176 483.591919,465.291077 
	C487.317841,464.323090 488.278503,462.697205 484.402466,459.998047 
M482.465851,474.897827 
	C485.303436,474.434662 487.041168,472.934479 486.654541,469.895966 
	C486.438538,468.198730 484.910767,468.117523 483.557159,468.234314 
	C481.195374,468.438110 478.682648,468.856934 478.069092,471.547668 
	C477.449432,474.265167 479.582977,474.779938 482.465851,474.897827 
z"/>
<path fill="#000000" opacity="1.000000" stroke="none" 
	d="
M668.253296,466.223419 
	C668.413025,468.667206 668.151978,470.618561 667.362122,472.498352 
	C666.262695,475.114655 664.360046,476.831879 661.666565,477.672974 
	C656.898132,479.161987 652.325317,476.703094 650.657043,471.769348 
	C648.525085,465.464447 651.159729,458.886505 656.466248,457.264801 
	C661.704224,455.664093 665.824158,457.895355 667.674683,463.371613 
	C667.938477,464.152283 668.039795,464.987854 668.253296,466.223419 
M657.107971,474.636688 
	C657.595276,474.720490 658.085510,474.891205 658.569336,474.874634 
	C663.122681,474.718445 665.410278,472.069214 665.358337,467.054993 
	C665.315369,462.907806 662.363159,459.486145 658.943298,459.619781 
	C655.436035,459.756805 653.046021,463.322632 653.174011,468.074158 
	C653.244995,470.711914 653.975769,472.942291 657.107971,474.636688 
z"/>
<path fill="#000000" opacity="1.000000" stroke="none" 
	d="
M625.526855,456.994202 
	C632.565369,459.978180 634.968140,469.303192 630.526855,474.927734 
	C627.276245,479.044434 620.948059,479.316193 617.403931,475.324738 
	C613.946350,471.430725 613.899841,466.796173 615.516602,462.209198 
	C617.073853,457.790833 620.725952,456.512299 625.526855,456.994202 
M619.654480,461.331390 
	C617.203064,464.709991 616.663879,468.311371 618.665405,472.052948 
	C620.284302,475.079254 624.573425,475.938385 627.242493,473.913086 
	C629.870239,471.919159 630.766418,466.061462 628.746521,462.869324 
	C626.615356,459.501434 623.682312,458.847046 619.654480,461.331390 
z"/>
<path fill="#000000" opacity="1.000000" stroke="none" 
	d="
M401.472382,474.871887 
	C402.692322,474.924469 403.527008,474.995605 404.351318,474.932007 
	C406.044830,474.801331 407.942169,474.572601 408.334381,472.622650 
	C408.743500,470.588562 406.928986,469.853851 405.419769,469.132141 
	C403.773560,468.344971 402.048981,467.697723 400.476593,466.785950 
	C398.282257,465.513489 397.075439,463.597137 397.662903,460.955719 
	C398.209198,458.499390 400.112976,457.436829 402.340057,457.069824 
	C405.369385,456.570526 408.460419,456.238586 411.033081,459.297974 
	C408.617249,461.113800 406.261444,459.590210 404.108459,459.959930 
	C402.789581,460.186462 401.284760,460.202271 400.885315,461.771545 
	C400.476349,463.378174 401.748871,464.180145 402.947174,464.781647 
	C404.724365,465.673737 406.608307,466.355896 408.372101,467.271332 
	C410.651825,468.454559 411.795898,470.339691 411.440674,472.991302 
	C411.113251,475.435547 409.578217,476.913116 407.362946,477.510742 
	C403.815491,478.467712 400.236145,478.986237 397.229218,475.965393 
	C398.110840,473.594269 399.792664,474.970459 401.472382,474.871887 
z"/>
<path fill="#000000" opacity="1.000000" stroke="none" 
	d="
M713.902283,461.449066 
	C714.078857,464.996490 716.962036,465.129486 719.135071,466.096893 
	C721.949829,467.349945 724.688599,468.594574 724.413330,472.435303 
	C724.204773,475.344543 722.554260,477.162689 719.876648,477.651245 
	C716.481750,478.270630 712.777649,479.316895 709.925293,475.258789 
	C712.733032,473.964508 715.183899,475.367889 717.554871,474.985260 
	C719.223999,474.715851 721.104919,474.659119 721.430786,472.576538 
	C721.704224,470.828613 720.273560,469.920288 718.901123,469.247589 
	C717.260254,468.443298 715.520508,467.837830 713.891968,467.011597 
	C711.635254,465.866730 710.246826,464.128021 710.640991,461.408264 
	C711.007141,458.881775 712.790161,457.783051 715.007690,457.198761 
	C718.168335,456.366058 721.144165,456.592590 724.270142,458.905396 
	C720.972656,461.836884 716.601074,457.569580 713.902283,461.449066 
z"/>
<path fill="#000000" opacity="1.000000" stroke="none" 
	d="
M687.143921,470.200104 
	C687.357361,465.896027 688.854492,461.738098 684.219299,458.703186 
	C688.437378,456.309845 686.687134,449.587708 692.494263,448.778900 
	C694.040466,448.563568 695.763977,448.324371 696.881042,450.106598 
	C688.885986,454.326050 688.807434,454.586365 694.300537,458.531372 
	C686.263916,463.057343 692.827209,471.370697 689.288147,477.421021 
	C685.916748,475.917114 687.562073,472.911652 687.143921,470.200104 
z"/>
<path fill="#000000" opacity="1.000000" stroke="none" 
	d="
M543.664307,474.918732 
	C544.624329,475.274353 545.257568,475.484894 545.810364,475.825775 
	C546.021667,475.956055 546.049255,476.384552 546.155334,476.679138 
	C541.876648,479.076935 538.709778,477.842743 537.974243,473.187103 
	C537.537415,470.421844 537.727234,467.550751 537.717407,464.726959 
	C537.709717,462.518280 537.756470,460.334564 535.227051,459.088715 
	C536.588562,456.831390 538.625427,455.483704 539.402466,452.930115 
	C540.040649,456.718353 543.646301,456.619293 545.816406,458.223022 
	C544.914307,460.941864 539.993713,459.283295 540.781311,462.882690 
	C541.650879,466.856903 538.755005,471.661255 543.664307,474.918732 
z"/>
<path fill="#000000" opacity="1.000000" stroke="none" 
	d="
M512.272339,470.944977 
	C512.096497,473.395874 512.781372,475.609467 510.235992,478.674469 
	C508.872375,470.978851 509.154663,464.630737 509.853577,457.702179 
	C513.348755,459.191986 516.812439,454.716766 521.347961,459.206757 
	C512.891785,459.492065 511.741089,464.451447 512.272339,470.944977 
z"/>
<path fill="#000000" opacity="1.000000" stroke="none" 
	d="
M590.438049,457.915771 
	C593.160339,457.696442 595.660339,455.429199 598.630371,458.967072 
	C585.806152,460.351074 592.158081,471.004456 589.650574,477.155151 
	C587.588562,477.260406 587.362244,476.251038 587.375061,475.229828 
	C587.437561,470.242371 587.546143,465.255341 587.667725,460.268860 
	C587.705261,458.728821 587.666870,457.019867 590.438049,457.915771 
z"/>
</svg>